<?xml version="1.0" encoding="UTF-8"?>
<svg version="1.1" xmlns="http://www.w3.org/2000/svg" width="92" height="83">
<path d="M0 0 C0.86625 0.66 1.7325 1.32 2.625 2 C3.45 2.556875 4.275 3.11375 5.125 3.6875 C13.05956055 11.02696851 17.6212609 21.1139087 18.09790039 31.86865234 C18.2576052 44.06089145 15.2146587 54.15520292 6.625 63 C-2.41938085 71.61695264 -12.95468732 75.11701506 -25.375 75 C-36.02215956 74.23600534 -46.42792953 69.19601458 -53.625 61.32421875 C-61.12829702 51.35890239 -64.45780936 40.13502468 -62.90625 27.7578125 C-60.60559252 15.81469352 -54.73202504 6.64902486 -44.8671875 -0.4921875 C-30.80340687 -9.00099522 -13.89242364 -8.23254734 0 0 Z M-46.375 12.8125 C-52.20100696 20.21579177 -55.10276211 28.58986662 -54.375 38 C-53.84182154 40.72616463 -53.13941325 43.32455363 -52.375 46 C-46.90580572 45.0499978 -42.18406628 42.97052767 -37.125 40.75 C-36.20203125 40.36714844 -35.2790625 39.98429687 -34.328125 39.58984375 C-33.4515625 39.20441406 -32.575 38.81898437 -31.671875 38.421875 C-30.87104492 38.07737305 -30.07021484 37.73287109 -29.24511719 37.37792969 C-27.11045857 36.11198551 -27.11045857 36.11198551 -26.73144531 33.41113281 C-26.55500488 32.21762207 -26.55500488 32.21762207 -26.375 31 C-25.715 30.67 -25.055 30.34 -24.375 30 C-24.375 23.73 -24.375 17.46 -24.375 11 C-24.705 11 -25.035 11 -25.375 11 C-25.375 13.97 -25.375 16.94 -25.375 20 C-26.096875 20.061875 -26.81875 20.12375 -27.5625 20.1875 C-31.38758882 21.29252566 -32.9319076 22.87827082 -35.375 26 C-36.43518324 30.31646033 -36.45970199 32.66119205 -35.375 37 C-38.345 37.66 -41.315 38.32 -44.375 39 C-46.13467074 31.96131705 -45.63228164 26.41033026 -42.375 20 C-39.55111729 15.5538868 -36.32012424 12.87914721 -31.375 11 C-27.5 10.3125 -27.5 10.3125 -24.375 10 C-24.045 8.35 -23.715 6.7 -23.375 5 C-22.715 5 -22.055 5 -21.375 5 C-21.375 7.64 -21.375 10.28 -21.375 13 C-21.045 12.01 -20.715 11.02 -20.375 10 C-13.69540381 12.20491525 -9.30513206 14.04141268 -5.375 20 C-4.88 21.485 -4.88 21.485 -4.375 23 C-7.345 24.32 -10.315 25.64 -13.375 27 C-14.035 25.68 -14.695 24.36 -15.375 23 C-17.90688648 21.24677063 -17.90688648 21.24677063 -20.375 20 C-20.705 23.3 -21.035 26.6 -21.375 30 C-17.69865334 32.39186087 -17.69865334 32.39186087 -14.80957031 31.30908203 C-13.86694336 30.87966309 -12.92431641 30.45024414 -11.953125 30.0078125 C-10.92832031 29.55019531 -9.90351562 29.09257813 -8.84765625 28.62109375 C-7.78417969 28.12738281 -6.72070312 27.63367188 -5.625 27.125 C-4.54605469 26.63902344 -3.46710937 26.15304688 -2.35546875 25.65234375 C0.31135189 24.44873443 2.97071394 23.23094573 5.625 22 C4.5081668 15.79805192 1.67758339 12.31219537 -3.33984375 8.51171875 C-17.28316804 -0.56080896 -34.7083302 0.47845714 -46.375 12.8125 Z M-0.00390625 33.25390625 C-0.78579819 33.59244125 -1.56769012 33.93097626 -2.37327576 34.2797699 C-4.89542284 35.37231713 -7.41645653 36.46740896 -9.9375 37.5625 C-11.58000885 38.27424844 -13.22258622 38.98583875 -14.86523438 39.69726562 C-25.04519586 44.10859495 -35.21364867 48.54598651 -45.375 53 C-45.70031425 55.94951084 -45.70031425 55.94951084 -44.08984375 57.5 C-37.03568623 63.45339888 -30.00185064 66.40123657 -20.609375 66.20703125 C-12.06349005 65.41519226 -5.43607177 62.02630463 0.625 56 C5.69749812 49.65666189 8.9315459 43.94783857 8.75 35.6875 C8.73195312 34.61886719 8.71390625 33.55023438 8.6953125 32.44921875 C8.67210937 31.64097656 8.64890625 30.83273438 8.625 30 C5.84476999 30 2.56749177 32.135206 -0.00390625 33.25390625 Z " fill="#283959" transform="translate(64.375,8)"/>
<path d="M0 0 C0.62960748 8.37727727 -0.37821976 14.60546924 -5.8125 21.19921875 C-12.43214143 27.78235481 -20.9372954 30.97279418 -30.25 31.4375 C-37.86069287 30.54958583 -43.54407777 28.45592223 -49 23 C-49 22.34 -49 21.68 -49 21 C-36.39332821 15.11408868 -23.78054019 9.25064315 -11 3.75 C-10.11739502 3.36787354 -9.23479004 2.98574707 -8.32543945 2.59204102 C-7.51679443 2.24713623 -6.70814941 1.90223145 -5.875 1.546875 C-5.17117187 1.24620117 -4.46734375 0.94552734 -3.7421875 0.63574219 C-2 0 -2 0 0 0 Z " fill="#263959" transform="translate(71,41)"/>
<path d="M0 0 C-0.01284733 3.42381219 -0.15980727 6.67154417 -1 10 C-3.875 11.9375 -3.875 11.9375 -7 13 C-9.8481102 14.96421393 -9.98655859 15.93279294 -10.6875 19.4375 C-11.05825583 23.0680865 -11.05825583 23.0680865 -11 27 C-16.41538462 30.07692308 -16.41538462 30.07692308 -19.375 29.6875 C-19.91125 29.460625 -20.4475 29.23375 -21 29 C-22.88057445 23.12320485 -22.36713574 17.60774605 -20.04296875 11.98828125 C-15.64525477 3.60462427 -9.63836409 -0.57830185 0 0 Z " fill="#DBC9A5" transform="translate(40,18)"/>
<path d="M0 0 C6.25851235 0.5960488 10.11913957 2.91580331 14.3125 7.5625 C16 10 16 10 17 13 C15.71086513 13.67154933 14.41859796 14.33708859 13.125 15 C12.40570313 15.37125 11.68640625 15.7425 10.9453125 16.125 C9 17 9 17 7 17 C5.65080468 15.34614767 4.31866272 13.678298 3 12 C2.01 11.34 1.02 10.68 0 10 C-0.29296875 7.6171875 -0.29296875 7.6171875 -0.1875 4.875 C-0.16042969 3.96492188 -0.13335937 3.05484375 -0.10546875 2.1171875 C-0.07066406 1.41851563 -0.03585938 0.71984375 0 0 Z " fill="#DBC9A5" transform="translate(44,18)"/>
<path d="M0 0 C1 1 1 1 1.1328125 3.46875 C1.13023438 4.4690625 1.12765625 5.469375 1.125 6.5 C1.12757812 7.5003125 1.13015625 8.500625 1.1328125 9.53125 C1 12 1 12 0 13 C-2.67058851 13.14115161 -5.32432238 13.04247107 -8 13 C-8 8.71 -8 4.42 -8 0 C-4.3147485 -0.92131287 -3.34188735 -1.15237495 0 0 Z " fill="#DBC9A5" transform="translate(91,36)"/>
</svg>
