<?xml version="1.0" encoding="utf-8"?>
<!-- Generator: Adobe Illustrator 16.0.3, SVG Export Plug-In . SVG Version: 6.00 Build 0)  -->
<!DOCTYPE svg PUBLIC "-//W3C//DTD SVG 1.1//EN" "http://www.w3.org/Graphics/SVG/1.1/DTD/svg11.dtd">
<svg version="1.1" xmlns="http://www.w3.org/2000/svg" xmlns:xlink="http://www.w3.org/1999/xlink" x="0px" y="0px"
	 width="841.89px" height="595.28px" viewBox="0 0 841.89 595.28" enable-background="new 0 0 841.89 595.28" xml:space="preserve">
<g id="Capa_1">
</g>
<g id="Capa_3">
</g>
<g id="Capa_2">
	<g>
		<circle fill="#FFFFFF" cx="414.044" cy="297.843" r="183.187"/>
		<g>
			<g>
				<g>
					<g>
						<path fill="#283959" d="M533.447,294.968c6.268,45.725-17.941,90.991-64.277,111.306s-107.125,19.597-135.083-22.994"/>
					</g>
					<g>
						<path fill="#2A3959" d="M414.039,465.107c-92.229,0-167.26-75.035-167.26-167.265s75.031-167.265,167.26-167.265
							c92.231,0,167.27,75.035,167.27,167.265S506.271,465.107,414.039,465.107z M414.039,164.021
							c-73.786,0-133.815,60.032-133.815,133.821c0,73.79,60.029,133.82,133.815,133.82c73.791,0,133.824-60.03,133.824-133.82
							C547.863,224.053,487.83,164.021,414.039,164.021z"/>
					</g>
					<g>
						<polygon fill="#2A3959" points="290.232,388.293 276.875,357.636 551.253,238.119 564.61,268.779 						"/>
					</g>
				</g>
				<g>
					<path fill="#2B395A" d="M433.554,299.822c0,10.774-8.737,19.506-19.515,19.506c-10.77,0-19.506-8.731-19.506-19.506
						s8.736-19.51,19.506-19.51C424.816,280.312,433.554,289.048,433.554,299.822z"/>
					<path fill="#2B395A" d="M419.494,243.898c0-37.047-2.443-67.075-5.455-67.075c-3.013,0-5.453,30.028-5.453,67.075
						c0,37.04,2.44,67.067,5.453,67.067C417.051,310.966,419.494,280.938,419.494,243.898z"/>
				</g>
				<path fill="#DBC8A4" d="M425.404,197.11c0.736,9.422,0.213,22.785,0.312,39.899c0.62,0.222,1.247,0.398,1.86,0.644
					c12.804,5.123,22.846,14.924,28.276,27.596l34.577-14.814c-9.381-21.912-26.739-38.855-48.874-47.713"/>
				<path fill="#DBC8A4" d="M371.688,204.078c-21.908,9.379-38.858,26.738-47.718,48.865c-8.851,22.132-8.564,46.385,0.816,68.296
					l34.588-14.812c-5.422-12.672-5.594-26.702-0.467-39.502c5.119-12.801,14.918-22.837,27.599-28.264
					c4.612-1.973,9.397-3.231,14.247-3.813c0.139-16.513,0.638-28.749,1.396-37.803C391.789,197.596,381.501,199.87,371.688,204.078
					"/>
			</g>
		</g>
	</g>
</g>
</svg>
